<svg id="Layer_1" data-name="Layer 1" xmlns="http://www.w3.org/2000/svg" viewBox="0 0 141.73 141.73"><defs><style>.cls-1{fill:none;stroke:#114d4d;stroke-miterlimit:10;stroke-width:3px;}.cls-2{fill:#254d4d;}</style></defs><circle class="cls-1" cx="70.87" cy="70.87" r="60.69"/><path class="cls-2" d="M65.75,83.41c0-2.65-.07-5.31,0-8,.06-1.44-.44-1.9-1.84-1.8s-3,0-4.49,0c-1.13.06-1.51-.39-1.38-1.44a1,1,0,0,0,0-.25c0-2.07-.73-4.67.25-6.07s3.84-.44,5.86-.53c1.17,0,1.61-.36,1.59-1.56a56.34,56.34,0,0,1,.16-6c.47-5.61,4.29-9.22,10-9.49a18.81,18.81,0,0,1,2.49,0c7.12.55,5.19-.46,5.52,5.92.06,1.23-.42,1.66-1.58,1.5a4.17,4.17,0,0,0-.5,0c-5.89.09-8,2.83-6.79,8.6.2,1,.74.94,1.41.94,1.83,0,3.66,0,5.49,0,1.15,0,1.79.19,1.28,1.51A5.47,5.47,0,0,0,83,68.09c-.78,5.35-.78,5.42-6.22,5.55-1.51,0-1.76.59-1.74,1.9.06,5.14-.08,10.29.08,15.42.06,2-.58,2.41-2.37,2.25-2.22-.18-5.21.7-6.5-.43-1.49-1.31-.33-4.35-.48-6.63C65.71,85.24,65.75,84.32,65.75,83.41Z"/></svg>