<svg id="Layer_1" data-name="Layer 1" xmlns="http://www.w3.org/2000/svg" viewBox="0 0 141.73 141.73"><defs><style>.cls-1{fill:none;stroke:#114d4d;stroke-miterlimit:10;stroke-width:3px;}.cls-2{fill:#254c4d;}.cls-3{fill:#fbf8f3;}</style></defs><circle class="cls-1" cx="70.38" cy="70.29" r="60.69"/><path class="cls-2" d="M70.39,87.16c-5.89-.26-11.73,0-17.5-.86-3.72-.55-5.29-2.08-5.85-5.74A67.11,67.11,0,0,1,47,60c.54-3.52,2.28-5.34,5.87-5.75a162.6,162.6,0,0,1,25.64-.62,68.45,68.45,0,0,1,9.69.62c3,.57,4.85,2.28,5.35,5.16a63.85,63.85,0,0,1,0,21.76,5.82,5.82,0,0,1-5.36,5.08C82.27,87.11,76.28,86.87,70.39,87.16Z"/><path class="cls-3" d="M76.71,70.29,64,77.33V63.24Z"/></svg>