<?xml version="1.0" encoding="utf-8"?>
<!-- Generator: Adobe Illustrator 25.0.0, SVG Export Plug-In . SVG Version: 6.00 Build 0)  -->
<svg version="1.1" id="Layer_1" xmlns="http://www.w3.org/2000/svg" xmlns:xlink="http://www.w3.org/1999/xlink" x="0px" y="0px"
	 viewBox="0 0 1081 132" style="enable-background:new 0 0 1081 132;" xml:space="preserve">
<style type="text/css">
	.st0{fill:#46ADA1;}
	.st1{fill:#BFE2DF;}
	.st2{fill:#114D4D;}
</style>
<g id="Page-1">
	<g id="Artboard" transform="translate(-280.000000, -318.000000)">
		<g id="BRAND-SHAPES" transform="translate(280.000000, 318.000000)">
			<path id="Path" class="st0" d="M405.3,5.3C251.7,18,111.5,55.9-3.1,111.6V84.9C115.5,38.6,255.1,10,405.3,5.3z"/>
			<path id="Path_1_" class="st1" d="M641.6,4.7c163,0,315,28,443.2,76.4v51.4C961.9,64.4,804.2,18.3,629.3,4.7
				C633.4,4.7,637.5,4.7,641.6,4.7z"/>
			<path id="Path_2_" class="st2" d="M520.8,0.5c36.8,0,73,1.4,108.6,4.2c174.9,13.6,332.6,59.7,455.5,127.8H-3.1v-20.9
				C111.5,55.9,251.7,18,405.3,5.3C443.1,2.1,481.6,0.5,520.8,0.5z"/>
		</g>
	</g>
</g>
</svg>
