<svg id="Layer_1" data-name="Layer 1" xmlns="http://www.w3.org/2000/svg" viewBox="0 0 141.73 141.73"><defs><style>.cls-1{fill:none;stroke:#114d4d;stroke-miterlimit:10;stroke-width:3px;}.cls-2{fill:#254d4d;}.cls-3{fill:#fbf9f4;}.cls-4{fill:#264d4d;}.cls-5{fill:#325555;}.cls-6{fill:#fbf8f3;}</style></defs><circle class="cls-1" cx="70.87" cy="70.87" r="60.69"/><path class="cls-2" d="M70.94,51.43c3,0,6-.15,9,0,5.5.32,9.36,3.83,10,9.28a87.18,87.18,0,0,1,0,19.84c-.67,6-4.19,9.32-10.18,9.59s-12,.28-17.94,0-9.38-3.68-10-9.48a87.56,87.56,0,0,1,0-20.08c.62-5.28,4.49-8.8,9.88-9.12C64.79,51.28,67.87,51.43,70.94,51.43Z"/><path class="cls-3" d="M70.84,54.81c3.47.17,7-.25,10.43.52,2.82.62,4.66,2.26,5,5.1a80,80,0,0,1,0,20.8,5.51,5.51,0,0,1-5,5.1,81.21,81.21,0,0,1-20.84,0,5.5,5.5,0,0,1-5-5.06,79.58,79.58,0,0,1,0-20.8c.36-2.84,2.17-4.5,5-5.14C63.87,54.55,67.36,55,70.84,54.81Z"/><path class="cls-4" d="M71,60.85a9.91,9.91,0,0,1,9.86,10,10,10,0,1,1-19.94-.21A9.93,9.93,0,0,1,71,60.85Z"/><path class="cls-5" d="M83.53,60c0,1.9-1,2.7-2.29,2.7A2.13,2.13,0,0,1,79,60.51,2.19,2.19,0,0,1,81.19,58,2.15,2.15,0,0,1,83.53,60Z"/><path class="cls-6" d="M77.34,70.83a6.48,6.48,0,1,1-6.47-6.51A6.51,6.51,0,0,1,77.34,70.83Z"/></svg>