<svg id="Layer_1" data-name="Layer 1" xmlns="http://www.w3.org/2000/svg" viewBox="0 0 141.73 141.73"><defs><style>.cls-1{fill:none;stroke:#114d4d;stroke-miterlimit:10;stroke-width:3px;}.cls-2{fill:#254d4d;}.cls-3{fill:#264d4d;}.cls-4{fill:#274e4e;}</style></defs><circle class="cls-1" cx="70.87" cy="70.87" r="60.69"/><path class="cls-2" d="M72.92,67.2c3-3.58,6.71-4.37,10.88-3.41a7.27,7.27,0,0,1,5.86,6.09c1.23,6.41.43,12.91.64,19.37,0,.7-.24,1.11-1,1.06h-.25c-6.81.76-6.77.76-6.84-6,0-3.31.38-6.64-.25-9.93-.55-2.91-1.81-4-4.28-3.8a4.51,4.51,0,0,0-4.33,4.6q-.21,6.47-.07,12.94c0,1.68-.32,2.26-2.14,2.24-6-.07-6,0-6-6.09s.06-12.12,0-18.17c0-1.69.53-2.22,2.12-2a10.47,10.47,0,0,0,2.74,0C72.27,63.71,73.43,64.45,72.92,67.2Z"/><path class="cls-3" d="M60.07,77.2c0,3.82,0,7.63,0,11.44,0,1.29-.39,1.66-1.69,1.71-6.48.25-6.47.29-6.47-6.06,0-6.14,0-12.27,0-18.41,0-1.35.31-1.81,1.76-1.84,6.41-.11,6.41-.16,6.41,6.2Z"/><path class="cls-4" d="M60.71,55.87a4.93,4.93,0,0,1-4.9,4.61,4.7,4.7,0,0,1,.17-9.4A4.94,4.94,0,0,1,60.71,55.87Z"/></svg>